<svg width="159" height="47" viewBox="0 0 159 47" fill="none" xmlns="http://www.w3.org/2000/svg">
<path d="M66.4877 20.6379H57.2266V6.32546H66.4877V8.85119H60.1312V12.1978H65.2248V14.6814H60.1312V18.1122H66.4877V20.6379ZM70.5859 20.6379H67.6813L70.9016 6.32546H76.4161L79.6364 20.6379H76.7318L76.1635 18.0491H71.1542L70.5859 20.6379ZM74.164 8.7249H73.1537L71.7014 15.5233H75.6163L74.164 8.7249ZM86.8255 8.85119H80.848V6.32546H90.3194V8.85119L84.3419 17.7333V18.1122H90.3194V20.6379H80.848V18.1332L86.8255 9.23005V8.85119ZM98.5118 14.8498V20.6379H95.6072V14.8498L91.1872 6.32546H94.4075L97.0384 12.0294L99.6694 6.32546H102.89L98.5118 14.8498Z" fill="#3F4855"/>
<path d="M62.9305 34.9137H60.1312V39.7126H57.2266V25.4001H62.7832C66.1508 25.4001 67.8347 26.9717 67.8347 30.1148C67.8347 31.981 67.1331 33.3561 65.7299 34.2401L67.7715 39.7126H64.5933L62.9305 34.9137ZM60.1312 32.43H62.8253C63.5129 32.43 64.025 32.2196 64.3618 31.7986C64.6985 31.3776 64.8669 30.8234 64.8669 30.1358C64.8669 29.4483 64.6845 28.901 64.3197 28.4941C63.9689 28.0872 63.4567 27.8837 62.7832 27.8837H60.1312V32.43ZM79.5397 39.7126H70.2787V25.4001H79.5397V27.9258H73.1833V31.2724H78.2768V33.756H73.1833V37.1868H79.5397V39.7126ZM90.9415 37.1026L91.0046 39.481C90.2469 39.6354 89.5383 39.7546 88.8788 39.8388C88.2193 39.923 87.5879 39.9651 86.9845 39.9651C85.7918 39.9651 84.8376 39.8178 84.122 39.5231C83.4064 39.2285 82.8451 38.7584 82.4382 38.1129C82.0313 37.4675 81.7506 36.7097 81.5963 35.8398C81.4419 34.9698 81.3647 33.8753 81.3647 32.5563C81.3647 31.1672 81.4489 30.0025 81.6173 29.0624C81.7997 28.1223 82.1014 27.3645 82.5224 26.7892C82.9433 26.1999 83.5046 25.7789 84.2062 25.5264C84.9078 25.2738 85.7848 25.1475 86.8372 25.1475C88.0579 25.1475 89.4541 25.3369 91.0257 25.7158L90.9415 28.0311C89.5523 27.8206 88.4017 27.7153 87.4896 27.7153C87.0266 27.7153 86.6337 27.7434 86.311 27.7995C86.0023 27.8557 85.7357 27.9539 85.5111 28.0942C85.3007 28.2205 85.1253 28.4029 84.985 28.6414C84.8587 28.8659 84.7464 29.1466 84.6482 29.4833C84.55 29.8341 84.4728 30.2972 84.4167 30.8725C84.3746 31.4478 84.3535 32.1564 84.3535 32.9983C84.3535 33.8262 84.3956 34.5208 84.4798 35.082C84.564 35.6433 84.7113 36.0994 84.9218 36.4502C85.1463 36.7869 85.448 37.0325 85.8269 37.1868C86.2057 37.3271 86.6828 37.3973 87.2581 37.3973C87.8474 37.3973 88.4438 37.3763 89.0472 37.3342C89.6505 37.278 90.282 37.2009 90.9415 37.1026ZM99.1284 33.9244V39.7126H96.2238V33.9244L91.8038 25.4001H95.0241L97.655 31.104L100.286 25.4001H103.506L99.1284 33.9244ZM114.086 37.1026L114.149 39.481C113.391 39.6354 112.683 39.7546 112.023 39.8388C111.364 39.923 110.732 39.9651 110.129 39.9651C108.936 39.9651 107.982 39.8178 107.266 39.5231C106.551 39.2285 105.989 38.7584 105.582 38.1129C105.176 37.4675 104.895 36.7097 104.741 35.8398C104.586 34.9698 104.509 33.8753 104.509 32.5563C104.509 31.1672 104.593 30.0025 104.762 29.0624C104.944 28.1223 105.246 27.3645 105.667 26.7892C106.088 26.1999 106.649 25.7789 107.35 25.5264C108.052 25.2738 108.929 25.1475 109.981 25.1475C111.202 25.1475 112.598 25.3369 114.17 25.7158L114.086 28.0311C112.697 27.8206 111.546 27.7153 110.634 27.7153C110.171 27.7153 109.778 27.7434 109.455 27.7995C109.147 27.8557 108.88 27.9539 108.655 28.0942C108.445 28.2205 108.27 28.4029 108.129 28.6414C108.003 28.8659 107.891 29.1466 107.792 29.4833C107.694 29.8341 107.617 30.2972 107.561 30.8725C107.519 31.4478 107.498 32.1564 107.498 32.9983C107.498 33.8262 107.54 34.5208 107.624 35.082C107.708 35.6433 107.856 36.0994 108.066 36.4502C108.291 36.7869 108.592 37.0325 108.971 37.1868C109.35 37.3271 109.827 37.3973 110.402 37.3973C110.992 37.3973 111.588 37.3763 112.191 37.3342C112.795 37.278 113.426 37.2009 114.086 37.1026ZM124.651 37.1447V39.7126H116.506V25.4001H119.41V37.1447H124.651ZM129.338 39.7126H126.433V25.4001H129.338V39.7126ZM135.36 39.7126H132.456V25.4001H137.36L140.812 37.1868H141.022V25.4001H143.927V39.7126H139.149L135.571 27.9258H135.36V39.7126ZM154.311 34.5769H153.006V32.0512H157.173V39.481C156.163 39.6354 155.251 39.7546 154.437 39.8388C153.637 39.923 152.922 39.9651 152.29 39.9651C151.182 39.9651 150.249 39.8248 149.491 39.5442C148.747 39.2495 148.144 38.8005 147.681 38.1971C147.232 37.5797 146.909 36.8009 146.713 35.8608C146.53 34.9207 146.439 33.7981 146.439 32.4932C146.439 31.1882 146.537 30.0727 146.734 29.1466C146.944 28.2205 147.274 27.4628 147.723 26.8734C148.186 26.2841 148.782 25.8491 149.512 25.5685C150.242 25.2878 151.133 25.1475 152.185 25.1475C153.49 25.1475 154.9 25.2948 156.416 25.5895L157.173 25.7369L157.089 27.989C156.247 27.8907 155.483 27.8206 154.795 27.7785C154.107 27.7364 153.497 27.7153 152.964 27.7153C152.431 27.7153 151.982 27.7434 151.617 27.7995C151.252 27.8557 150.943 27.9539 150.691 28.0942C150.452 28.2345 150.256 28.4169 150.101 28.6414C149.961 28.8659 149.842 29.1466 149.744 29.4833C149.533 30.1709 149.428 31.3356 149.428 32.9773C149.428 33.8052 149.47 34.5067 149.554 35.082C149.652 35.6433 149.814 36.0994 150.038 36.4502C150.277 36.8009 150.6 37.0535 151.006 37.2079C151.413 37.3622 151.933 37.4394 152.564 37.4394L154.311 37.3552V34.5769Z" fill="#3F4855"/>
<path d="M37.54 0C41.5854 2.31335e-05 44.8652 3.27979 44.8652 7.3252V37.54C44.8652 41.5854 41.5854 44.8652 37.54 44.8652H7.3252C3.27979 44.8652 2.20504e-05 41.5854 0 37.54V7.3252C0 3.27978 3.27978 0 7.3252 0H37.54ZM26.4199 10.0039H18.6973C17.3595 10.0042 16.1664 10.8323 15.6934 12.0742L15.6494 12.1953L11.9844 23.1074C11.2846 25.1906 12.8347 27.3464 15.0322 27.3467H20.8662L22.4414 22.5723H27.4404L24.8877 30.1719H19.9688L20.5146 28.5898L15.1172 31.3037L17.8311 36.7002L18.3564 35.0439H26.0781C27.4162 35.0439 28.6099 34.2157 29.083 32.9736L29.126 32.8525L32.792 21.9395C33.4914 19.8563 31.9416 17.7013 29.7441 17.7012H23.9102L22.335 22.4756H17.3359L19.8887 14.876H24.8076L24.2617 16.458L29.6582 13.7441L26.9453 8.34766L26.4199 10.0039Z" fill="url(#paint0_linear_1_2)"/>
<defs>
<linearGradient id="paint0_linear_1_2" x1="22.4327" y1="0" x2="22.4327" y2="44.8654" gradientUnits="userSpaceOnUse">
<stop stop-color="#1E77F8"/>
<stop offset="1" stop-color="#124692"/>
</linearGradient>
</defs>
</svg>
