<svg width="20" height="20" viewBox="0 0 20 20" fill="none" xmlns="http://www.w3.org/2000/svg">
<path d="M16.4004 6.75C16.4004 5.72234 16.1344 4.95598 15.6445 4.44727C15.1589 3.94292 14.3642 3.59965 13.1113 3.59961H6.88867C5.63582 3.59965 4.84114 3.94292 4.35547 4.44727C3.86564 4.95598 3.59961 5.72234 3.59961 6.75V14.25C3.59961 15.2777 3.86564 16.044 4.35547 16.5527C4.84114 17.0571 5.63582 17.4004 6.88867 17.4004H13.1113C14.3642 17.4004 15.1589 17.0571 15.6445 16.5527C16.1344 16.044 16.4004 15.2777 16.4004 14.25V6.75ZM17.5996 14.25C17.5996 15.4722 17.2827 16.581 16.5088 17.3848C15.7306 18.1928 14.5805 18.5996 13.1113 18.5996H6.88867C5.41953 18.5996 4.26937 18.1928 3.49121 17.3848C2.71733 16.581 2.40039 15.4722 2.40039 14.25V6.75C2.40039 5.52781 2.71733 4.419 3.49121 3.61523C4.26937 2.80715 5.41953 2.40043 6.88867 2.40039H13.1113C14.5805 2.40043 15.7306 2.80715 16.5088 3.61523C17.2827 4.419 17.5996 5.52781 17.5996 6.75V14.25Z" fill="currentColor"/>
<path d="M13 2.40039C13.3314 2.40039 13.5996 2.66863 13.5996 3V8.64062C13.5994 9.12228 13.2549 9.42147 12.9473 9.5332C12.6386 9.64522 12.2391 9.62815 11.917 9.38379L11.9131 9.38086L10 7.90234L8.08691 9.38086L8.08301 9.38379C7.76093 9.62815 7.36144 9.64522 7.05273 9.5332C6.74506 9.42147 6.40056 9.12228 6.40039 8.64062V3C6.40039 2.66863 6.66863 2.40039 7 2.40039H13ZM7.59961 8.24023L9.3418 6.89551C9.72076 6.59956 10.2781 6.59988 10.6572 6.89551H10.6582L12.4004 8.24023V3.59961H7.59961V8.24023Z" fill="currentColor"/>
<path d="M14 11.4004C14.3314 11.4004 14.5996 11.6686 14.5996 12C14.5996 12.3314 14.3314 12.5996 14 12.5996H11C10.6686 12.5996 10.4004 12.3314 10.4004 12C10.4004 11.6686 10.6686 11.4004 11 11.4004H14Z" fill="currentColor"/>
<path d="M14 13.4004C14.3314 13.4004 14.5996 13.6686 14.5996 14C14.5996 14.3314 14.3314 14.5996 14 14.5996H8C7.66863 14.5996 7.40039 14.3314 7.40039 14C7.40039 13.6686 7.66863 13.4004 8 13.4004H14Z" fill="currentColor"/>
</svg>
