<svg width="20" height="20" viewBox="0 0 20 20" fill="none" xmlns="http://www.w3.org/2000/svg">
<path d="M16.0672 15.8082C16.1253 15.8662 16.1713 15.9352 16.2027 16.011C16.2342 16.0869 16.2504 16.1682 16.2504 16.2503C16.2504 16.3325 16.2342 16.4138 16.2027 16.4897C16.1713 16.5655 16.1253 16.6345 16.0672 16.6925C16.0091 16.7506 15.9402 16.7967 15.8643 16.8281C15.7884 16.8595 15.7071 16.8757 15.625 16.8757C15.5429 16.8757 15.4616 16.8595 15.3857 16.8281C15.3098 16.7967 15.2409 16.7506 15.1828 16.6925L8.93282 10.4425C8.87471 10.3845 8.82861 10.3156 8.79715 10.2397C8.7657 10.1638 8.74951 10.0825 8.74951 10.0003C8.74951 9.91821 8.7657 9.83688 8.79715 9.76101C8.82861 9.68514 8.87471 9.61621 8.93282 9.55816L15.1828 3.30816C15.3001 3.19088 15.4592 3.125 15.625 3.125C15.7909 3.125 15.9499 3.19088 16.0672 3.30816C16.1845 3.42544 16.2504 3.5845 16.2504 3.75035C16.2504 3.9162 16.1845 4.07526 16.0672 4.19253L10.2586 10.0003L16.0672 15.8082ZM4.0086 10.0003L9.81719 4.19253C9.93447 4.07526 10.0004 3.9162 10.0004 3.75035C10.0004 3.5845 9.93447 3.42544 9.81719 3.30816C9.69992 3.19088 9.54086 3.125 9.375 3.125C9.20915 3.125 9.05009 3.19088 8.93282 3.30816L2.68282 9.55816C2.62471 9.61621 2.57861 9.68514 2.54715 9.76101C2.5157 9.83688 2.49951 9.91821 2.49951 10.0003C2.49951 10.0825 2.5157 10.1638 2.54715 10.2397C2.57861 10.3156 2.62471 10.3845 2.68282 10.4425L8.93282 16.6925C8.99088 16.7506 9.05982 16.7967 9.13569 16.8281C9.21156 16.8595 9.29288 16.8757 9.375 16.8757C9.45713 16.8757 9.53844 16.8595 9.61431 16.8281C9.69018 16.7967 9.75912 16.7506 9.81719 16.6925C9.87526 16.6345 9.92132 16.5655 9.95275 16.4897C9.98418 16.4138 10.0004 16.3325 10.0004 16.2503C10.0004 16.1682 9.98418 16.0869 9.95275 16.011C9.92132 15.9352 9.87526 15.8662 9.81719 15.8082L4.0086 10.0003Z" fill="currentColor"/>
</svg>
