<svg width="33" height="32" viewBox="0 0 33 32" fill="none" xmlns="http://www.w3.org/2000/svg">
<g id="CheckCircle" clip-path="url(#clip0_12670_5873)">
<path id="Vector" d="M16.5 0C13.3355 0 10.2421 0.938383 7.61088 2.69649C4.9797 4.45459 2.92894 6.95345 1.71793 9.87706C0.506933 12.8007 0.190079 16.0177 0.807443 19.1214C1.42481 22.2251 2.94866 25.0761 5.1863 27.3137C7.42394 29.5513 10.2749 31.0752 13.3786 31.6926C16.4823 32.3099 19.6993 31.9931 22.6229 30.7821C25.5466 29.5711 28.0454 27.5203 29.8035 24.8891C31.5616 22.2579 32.5 19.1645 32.5 16C32.4955 11.7579 30.8084 7.69085 27.8088 4.69124C24.8091 1.69163 20.7421 0.00447972 16.5 0ZM23.5246 13.1785L14.9092 21.7938C14.7949 21.9083 14.6592 21.9991 14.5098 22.061C14.3604 22.1229 14.2002 22.1548 14.0385 22.1548C13.8767 22.1548 13.7166 22.1229 13.5672 22.061C13.4177 21.9991 13.282 21.9083 13.1677 21.7938L9.47539 18.1015C9.24445 17.8706 9.11471 17.5574 9.11471 17.2308C9.11471 16.9042 9.24445 16.5909 9.47539 16.36C9.70633 16.1291 10.0196 15.9993 10.3462 15.9993C10.6728 15.9993 10.986 16.1291 11.2169 16.36L14.0385 19.1831L21.7831 11.4369C21.8974 11.3226 22.0332 11.2319 22.1826 11.17C22.332 11.1081 22.4921 11.0762 22.6538 11.0762C22.8156 11.0762 22.9757 11.1081 23.1251 11.17C23.2745 11.2319 23.4103 11.3226 23.5246 11.4369C23.639 11.5513 23.7297 11.687 23.7916 11.8364C23.8534 11.9858 23.8853 12.146 23.8853 12.3077C23.8853 12.4694 23.8534 12.6295 23.7916 12.7789C23.7297 12.9284 23.639 13.0641 23.5246 13.1785Z" fill="#1E77F8"/>
</g>
<defs>
<clipPath id="clip0_12670_5873">
<rect width="32" height="32" fill="white" transform="translate(0.5)"/>
</clipPath>
</defs>
</svg>
