<svg width="20" height="21" viewBox="0 0 20 21" fill="none" xmlns="http://www.w3.org/2000/svg">
<path d="M12.4275 14.7383C12.313 15.014 12.1835 15.3225 12.0457 15.6377C11.8194 16.1553 11.576 16.6876 11.3494 17.1279C11.1105 17.5921 10.9237 17.8856 10.821 17.9883L10.8171 17.9932C10.6105 18.2056 10.322 18.334 9.99976 18.334C9.35938 18.3338 8.83374 17.8074 8.83374 17.167C8.83374 16.8449 8.96132 16.5572 9.17358 16.3506L9.17847 16.3457C9.28116 16.243 9.57552 16.0573 10.0398 15.8184C10.4801 15.5918 11.0115 15.3473 11.5291 15.1211C11.844 14.9834 12.152 14.8527 12.4275 14.7383ZM3.94702 4.21094C5.20132 5.30044 7.41169 6.10052 9.99976 6.10059C12.5878 6.10059 14.7981 5.30041 16.0525 4.21094L17.0632 3.33398H2.93726L3.94702 4.21094ZM8.83374 6.72656L8.39624 6.6709C6.56541 6.43799 4.9842 5.81815 3.87378 4.99121C2.94581 4.3001 2.38108 3.49316 2.21753 2.66699H17.782C17.6184 3.4931 17.0546 4.30015 16.1267 4.99121C15.0162 5.81825 13.4343 6.43801 11.6033 6.6709L11.1667 6.72656V10.0771L11.5691 10.1572C13.0198 10.445 14.5802 11.1536 15.7761 12.501C16.8985 13.7654 17.7324 15.63 17.824 18.334H13.8337V17.667H17.1316L17.0535 17.0996C16.6443 14.0944 15.1631 12.4591 13.613 11.5957C12.0908 10.7478 10.5465 10.667 9.99976 10.667C9.45277 10.667 7.90932 10.7481 6.38745 11.5957C4.83739 12.4591 3.35524 14.0944 2.94604 17.0996L2.8689 17.667H6.16675V18.334H2.17554C2.2671 15.63 3.10202 13.7654 4.22437 12.501C5.42024 11.1538 6.97988 10.445 8.43042 10.1572L8.83374 10.0771V6.72656Z" fill="currentColor" stroke="currentColor"/>
</svg>
