<svg width="20" height="20" viewBox="0 0 20 20" fill="none" xmlns="http://www.w3.org/2000/svg">
<path d="M11.067 10.4425L4.81705 16.6925C4.69977 16.8098 4.54071 16.8757 4.37486 16.8757C4.20901 16.8757 4.04995 16.8098 3.93267 16.6925C3.8154 16.5753 3.74951 16.4162 3.74951 16.2503C3.74951 16.0845 3.8154 15.9254 3.93267 15.8082L9.74127 10.0003L3.93267 4.19253C3.8154 4.07526 3.74951 3.9162 3.74951 3.75035C3.74951 3.5845 3.8154 3.42544 3.93267 3.30816C4.04995 3.19088 4.20901 3.125 4.37486 3.125C4.54071 3.125 4.69977 3.19088 4.81705 3.30816L11.067 9.55816C11.1252 9.61621 11.1713 9.68514 11.2027 9.76101C11.2342 9.83688 11.2504 9.91821 11.2504 10.0003C11.2504 10.0825 11.2342 10.1638 11.2027 10.2397C11.1713 10.3156 11.1252 10.3845 11.067 10.4425ZM17.317 9.55816L11.067 3.30816C10.9498 3.19088 10.7907 3.125 10.6249 3.125C10.459 3.125 10.2999 3.19088 10.1827 3.30816C10.0654 3.42544 9.99951 3.5845 9.99951 3.75035C9.99951 3.9162 10.0654 4.07526 10.1827 4.19253L15.9913 10.0003L10.1827 15.8082C10.0654 15.9254 9.99951 16.0845 9.99951 16.2503C9.99951 16.4162 10.0654 16.5753 10.1827 16.6925C10.2999 16.8098 10.459 16.8757 10.6249 16.8757C10.7907 16.8757 10.9498 16.8098 11.067 16.6925L17.317 10.4425C17.3752 10.3845 17.4213 10.3156 17.4527 10.2397C17.4842 10.1638 17.5004 10.0825 17.5004 10.0003C17.5004 9.91821 17.4842 9.83688 17.4527 9.76101C17.4213 9.68514 17.3752 9.61621 17.317 9.55816Z" fill="currentColor"/>
</svg>
