<svg xmlns="http://www.w3.org/2000/svg" width="26" height="26" viewBox="0 0 26 26" fill="currentColor">
  <path d="M22.375 15.3437C22.375 15.5509 22.2927 15.7497 22.1462 15.8962C21.9997 16.0427 21.801 16.125 21.5938 16.125H19.25V17.6875H20.8125C21.0197 17.6875 21.2184 17.7698 21.3649 17.9163C21.5114 18.0628 21.5938 18.2615 21.5938 18.4687C21.5938 18.6759 21.5114 18.8747 21.3649 19.0212C21.2184 19.1677 21.0197 19.25 20.8125 19.25H19.25V20.8125C19.25 21.0197 19.1677 21.2184 19.0212 21.3649C18.8747 21.5114 18.676 21.5937 18.4688 21.5937C18.2615 21.5937 18.0628 21.5114 17.9163 21.3649C17.7698 21.2184 17.6875 21.0197 17.6875 20.8125V15.3437C17.6875 15.1365 17.7698 14.9378 17.9163 14.7913C18.0628 14.6448 18.2615 14.5625 18.4688 14.5625H21.5938C21.801 14.5625 21.9997 14.6448 22.1462 14.7913C22.2927 14.9378 22.375 15.1365 22.375 15.3437ZM9.48438 17.2969C9.48438 18.0221 9.19629 18.7176 8.6835 19.2304C8.1707 19.7432 7.4752 20.0312 6.75 20.0312H5.96875V20.8125C5.96875 21.0197 5.88644 21.2184 5.73993 21.3649C5.59341 21.5114 5.3947 21.5937 5.1875 21.5937C4.9803 21.5937 4.78159 21.5114 4.63507 21.3649C4.48856 21.2184 4.40625 21.0197 4.40625 20.8125V15.3437C4.40625 15.1365 4.48856 14.9378 4.63507 14.7913C4.78159 14.6448 4.9803 14.5625 5.1875 14.5625H6.75C7.4752 14.5625 8.1707 14.8506 8.6835 15.3634C9.19629 15.8762 9.48438 16.5717 9.48438 17.2969ZM7.92188 17.2969C7.92188 16.9861 7.79841 16.688 7.57864 16.4682C7.35887 16.2485 7.0608 16.125 6.75 16.125H5.96875V18.4687H6.75C7.0608 18.4687 7.35887 18.3453 7.57864 18.1255C7.79841 17.9057 7.92188 17.6077 7.92188 17.2969ZM16.5156 18.0781C16.5156 19.0105 16.1452 19.9047 15.4859 20.564C14.8266 21.2234 13.9324 21.5937 13 21.5937H11.4375C11.2303 21.5937 11.0316 21.5114 10.8851 21.3649C10.7386 21.2184 10.6562 21.0197 10.6562 20.8125V15.3437C10.6562 15.1365 10.7386 14.9378 10.8851 14.7913C11.0316 14.6448 11.2303 14.5625 11.4375 14.5625H13C13.9324 14.5625 14.8266 14.9329 15.4859 15.5922C16.1452 16.2515 16.5156 17.1457 16.5156 18.0781ZM14.9531 18.0781C14.9531 17.5601 14.7473 17.0633 14.3811 16.6971C14.0148 16.3308 13.518 16.125 13 16.125H12.2188V20.0312H13C13.518 20.0312 14.0148 19.8255 14.3811 19.4592C14.7473 19.0929 14.9531 18.5961 14.9531 18.0781ZM4.40625 11.4375V4.40625C4.40625 3.99185 4.57087 3.59442 4.8639 3.3014C5.15692 3.00837 5.55435 2.84375 5.96875 2.84375H15.3438C15.4464 2.84367 15.548 2.86381 15.6429 2.90302C15.7377 2.94223 15.8239 2.99974 15.8965 3.07227L21.3652 8.54102C21.4378 8.61362 21.4953 8.69981 21.5345 8.79465C21.5737 8.88949 21.5938 8.99112 21.5938 9.09375V11.4375C21.5938 11.6447 21.5114 11.8434 21.3649 11.9899C21.2184 12.1364 21.0197 12.2187 20.8125 12.2187C20.6053 12.2187 20.4066 12.1364 20.2601 11.9899C20.1136 11.8434 20.0312 11.6447 20.0312 11.4375V9.875H15.3438C15.1365 9.875 14.9378 9.79269 14.7913 9.64618C14.6448 9.49966 14.5625 9.30095 14.5625 9.09375V4.40625H5.96875V11.4375C5.96875 11.6447 5.88644 11.8434 5.73993 11.9899C5.59341 12.1364 5.3947 12.2187 5.1875 12.2187C4.9803 12.2187 4.78159 12.1364 4.63507 11.9899C4.48856 11.8434 4.40625 11.6447 4.40625 11.4375ZM16.125 8.3125H18.9268L16.125 5.51074V8.3125Z" fill="currentColor"/>
</svg>