<svg width="26" height="26" viewBox="0 0 26 26" fill="none" xmlns="http://www.w3.org/2000/svg">
<g id="Icon/ShippingContainer">
<path id="Vector" d="M24.0094 7.17535L13.2234 4.09395C13.1136 4.06247 12.9984 4.05451 12.8852 4.07059L2.20797 5.59606C1.82138 5.65292 1.46798 5.8465 1.21194 6.14168C0.955894 6.43686 0.814173 6.81406 0.8125 7.20481V18.7951C0.814173 19.1859 0.955894 19.5631 1.21194 19.8582C1.46798 20.1534 1.82138 20.347 2.20797 20.4039L12.8852 21.9273C12.9232 21.9333 12.9616 21.9366 13 21.9375C13.0756 21.9376 13.1508 21.927 13.2234 21.906L24.0094 18.8246C24.3477 18.7266 24.6452 18.5219 24.8575 18.2409C25.0699 17.9599 25.1856 17.6178 25.1875 17.2656V8.73434C25.1856 8.38215 25.0699 8.04003 24.8575 7.75905C24.6452 7.47807 24.3477 7.27331 24.0094 7.17535ZM9.75 12.1875H8.125V6.39231L12.1875 5.81137V20.1886L8.125 19.6076V13.8125H9.75C9.96549 13.8125 10.1722 13.7269 10.3245 13.5745C10.4769 13.4221 10.5625 13.2155 10.5625 13C10.5625 12.7845 10.4769 12.5778 10.3245 12.4254C10.1722 12.2731 9.96549 12.1875 9.75 12.1875ZM2.4375 7.20481L6.5 6.62387V12.1875H4.875C4.65951 12.1875 4.45285 12.2731 4.30048 12.4254C4.1481 12.5778 4.0625 12.7845 4.0625 13C4.0625 13.2155 4.1481 13.4221 4.30048 13.5745C4.45285 13.7269 4.65951 13.8125 4.875 13.8125H6.5V19.3761L2.4375 18.7951V7.20481ZM13.8125 20.0474V5.95254L23.5625 8.73434V17.2656L13.8125 20.0474Z" fill="currentColor"/>
</g>
</svg>
